<svg xmlns="http://www.w3.org/2000/svg" viewBox="0 0 1200 630">
  <defs><linearGradient id="sky" x2="0" y2="1"><stop stop-color="#173557"/><stop offset="1" stop-color="#050b14"/></linearGradient><pattern id="crowd" width="20" height="16" patternUnits="userSpaceOnUse"><circle cx="5" cy="5" r="3" fill="#f6b73c"/><circle cx="15" cy="11" r="3" fill="#61d7ff"/></pattern></defs>
  <rect width="1200" height="630" fill="url(#sky)"/><path d="M0 230h1200v180H0z" fill="url(#crowd)" opacity=".6"/><path d="M0 360h1200v270H0z" fill="#1c6a3c"/><g stroke="#fff" opacity=".65"><path d="M100 360v270M300 360v270M500 360v270M700 360v270M900 360v270M1100 360v270"/><path d="M0 495h1200"/></g><ellipse cx="600" cy="470" rx="175" ry="68" fill="#000" opacity=".25"/><g transform="translate(600 445)"><rect x="-55" y="-80" width="110" height="120" rx="18" fill="#e24b3c"/><rect x="-62" y="-46" width="124" height="34" fill="#f6b73c"/><rect x="-42" y="38" width="31" height="82" fill="#12213b"/><rect x="11" y="38" width="31" height="82" fill="#12213b"/><rect x="-47" y="-135" width="94" height="60" rx="24" fill="#e6eef5"/><rect x="-55" y="-132" width="110" height="18" fill="#e24b3c"/><text x="0" y="5" text-anchor="middle" font-family="monospace" font-size="55" font-weight="900" fill="#fff">99</text></g><text x="70" y="105" fill="#fff" font-family="monospace" font-size="76" font-weight="900">IRONFIELD</text><text x="70" y="185" fill="#f6b73c" font-family="monospace" font-size="92" font-weight="900">DYNASTY</text><text x="75" y="230" fill="#c9daee" font-family="sans-serif" font-size="25" letter-spacing="8">BUILD · PLAY · DOMINATE</text>
</svg>
